<?xml version="1.0" encoding="UTF-8"?>
<svg version="1.1" xmlns="http://www.w3.org/2000/svg" width="512" height="512">
<path d="M0 0 C0.65508469 -0.00350607 1.31016938 -0.00701215 1.98510513 -0.01062447 C4.18358622 -0.01993976 6.38180249 -0.01501491 8.58029461 -0.01015663 C10.17108348 -0.01389283 11.76187052 -0.01849423 13.35265464 -0.02388728 C17.72694149 -0.03613646 22.10115197 -0.03585455 26.47545207 -0.03349853 C31.19200137 -0.03309084 35.90852603 -0.04412485 40.6250639 -0.05361366 C49.86677032 -0.07023513 59.10845124 -0.07572373 68.35017136 -0.07683842 C75.8614296 -0.07778835 83.37267941 -0.08189587 90.88393497 -0.08823967 C112.17415917 -0.10585517 133.46436319 -0.11507805 154.75459472 -0.11357872 C156.47667195 -0.11345885 156.47667195 -0.11345885 158.23353863 -0.11333656 C159.38298994 -0.1132548 160.53244125 -0.11317304 161.71672442 -0.1130888 C180.347566 -0.1122758 198.97832676 -0.13141614 217.60914496 -0.1596133 C236.73367752 -0.18832956 255.85817065 -0.20215428 274.98272532 -0.20042574 C285.72190557 -0.19976141 296.46100109 -0.20527273 307.20016193 -0.22678185 C316.34344448 -0.24497708 325.48660388 -0.2493546 334.62989668 -0.235763 C339.2951976 -0.22922499 343.96026217 -0.22914616 348.62554073 -0.2464695 C352.89729771 -0.2621685 357.1686303 -0.25936918 361.44037672 -0.24190123 C362.9847758 -0.23882433 364.5292063 -0.24248973 366.07356832 -0.25362138 C382.48299225 -0.36405506 382.48299225 -0.36405506 389.15880841 5.93747807 C393.74580473 11.20478132 394.23369496 15.83693298 394.1272459 22.63193321 C394.13519472 23.65133975 394.14314353 24.6707463 394.15133321 25.72104394 C394.1705238 29.1238298 394.14698024 32.5249409 394.12343121 35.92767906 C394.12828897 38.37230104 394.13572949 40.81691905 394.14555645 43.26152611 C394.16240307 49.20361443 394.1513715 55.1452593 394.12703057 61.0872853 C394.09973135 68.01036061 394.10307136 74.93332107 394.10729723 81.85643654 C394.11367054 94.2095482 394.09037724 106.56242886 394.05116558 118.91547203 C394.01314336 130.89698887 393.99899552 142.87823512 394.01014996 154.85980797 C394.02226912 167.91621314 394.0219062 180.97249947 393.99917829 194.02889478 C393.99676377 195.42132782 393.9943518 196.81376087 393.99194241 198.20619392 C393.99013179 199.23378285 393.99013179 199.23378285 393.9882846 200.28213114 C393.9805314 205.10597641 393.98131146 209.92977738 393.9851141 214.75362587 C393.98980456 221.24620296 393.97268166 227.73850757 393.94099331 234.23101044 C393.93250178 236.61506716 393.93081045 238.99915913 393.93637371 241.38322449 C393.94281061 244.63472283 393.92467316 247.88518056 393.90019512 251.13657188 C393.90775377 252.082484 393.91531242 253.02839612 393.92310011 254.00297225 C393.8267055 261.22884265 391.79089158 264.89878161 386.5663023 270.00726891 C380.6975749 274.14990001 374.87345919 274.54716925 367.9413023 274.38226891 C367.20975933 274.37324547 366.47821636 274.36422203 365.72450542 274.35492516 C363.94245932 274.33163044 362.16058471 274.29577081 360.3788023 274.25726891 C360.42520855 275.46383141 360.4716148 276.67039391 360.5194273 277.91351891 C360.55697517 279.52807727 360.59337207 281.14266268 360.6288023 282.75726891 C360.66231792 283.54875328 360.69583355 284.34023766 360.7303648 285.15570641 C360.84271391 292.00900242 359.08684889 296.98741311 354.70302105 302.28070641 C346.86834738 308.7503892 339.20396783 308.52321324 329.3788023 308.25726891 C329.42520855 309.39164391 329.4716148 310.52601891 329.5194273 311.69476891 C329.98976299 327.8238854 329.98976299 327.8238854 325.3788023 333.25726891 C320.63015152 338.24222696 316.43345367 341.10767775 309.39052105 341.45258141 C307.94898437 341.43941669 306.50751011 341.41575541 305.0663023 341.38226891 C304.32573589 341.37324547 303.58516949 341.36422203 302.82216167 341.35492516 C301.00756763 341.33151104 299.19314159 341.29564506 297.3788023 341.25726891 C297.42520855 342.17508141 297.4716148 343.09289391 297.5194273 344.03851891 C297.9174351 357.5707842 297.9174351 357.5707842 293.3788023 363.25726891 C289.5086893 367.25931757 286.30575186 370.12504847 280.5275448 370.38607007 C279.35436863 370.38785864 278.18119247 370.38964721 276.97246552 370.39148998 C275.98823489 370.39501833 275.98823489 370.39501833 274.98412082 370.39861795 C272.77002786 370.405312 270.55599353 370.40484961 268.34189129 370.40443993 C266.74458021 370.4077383 265.14726997 370.41146381 263.54996079 370.41558141 C259.14837185 370.42561254 254.74679655 370.42931999 250.3451978 370.43197072 C245.60271602 370.43587046 240.86024507 370.44544901 236.1177702 370.45418358 C224.65874398 370.47395714 213.19971687 370.48401525 201.74067786 370.49291137 C196.34680469 370.49729274 190.95293249 370.50265993 185.5590601 370.50790024 C167.63275926 370.52491327 149.70645904 370.53940805 131.78015137 370.54664898 C127.12691847 370.54855893 122.47368557 370.55047925 117.82045269 370.55243492 C116.66388915 370.55291866 115.5073256 370.5534024 114.31571468 370.5539008 C95.57481918 370.56220335 76.83398747 370.58754375 58.09311984 370.6200156 C38.86017389 370.65306887 19.62726037 370.67109617 0.39428586 370.67429322 C-10.40752797 370.6764599 -21.20924878 370.6852317 -32.01103497 370.71075439 C-41.20925605 370.73243771 -50.40736153 370.74052347 -59.60560527 370.73078761 C-64.29925019 370.72623607 -68.99265646 370.72817872 -73.68626881 370.74754906 C-77.98400302 370.76513255 -82.28132365 370.76422229 -86.57906196 370.74865177 C-88.13294516 370.74626836 -89.68685663 370.75063717 -91.24069651 370.76248042 C-99.24427427 370.81969926 -105.76336098 370.81320966 -112.6211977 366.25726891 C-114.46104145 364.44086266 -114.46104145 364.44086266 -115.5586977 362.69476891 C-115.93897114 362.11597984 -116.31924458 361.53719078 -116.71104145 360.94086266 C-118.33693316 357.9333119 -118.74698171 355.42848578 -118.75262547 352.07862949 C-118.75646661 351.22292463 -118.76030776 350.36721976 -118.7642653 349.48558444 C-118.76339882 348.54513335 -118.76253233 347.60468226 -118.7616396 346.63573265 C-118.76461072 345.63693244 -118.76758184 344.63813223 -118.770643 343.60906535 C-118.779347 340.24659292 -118.78083968 336.88415602 -118.78233051 333.5216732 C-118.78695746 331.11720262 -118.79198195 328.71273277 -118.79737568 326.30826378 C-118.81051306 319.76485966 -118.81698375 313.22146294 -118.82138634 306.67804885 C-118.82414867 302.59259012 -118.82838601 298.50713376 -118.83289051 294.42167664 C-118.84508315 283.11100189 -118.85538252 271.80032904 -118.8587656 260.48964787 C-118.85898517 259.76569784 -118.85920473 259.04174782 -118.85943095 258.29585992 C-118.85964923 257.57017472 -118.85986751 256.84448952 -118.8600924 256.09681386 C-118.86053587 254.62629171 -118.86098243 253.15576957 -118.86143208 251.68524742 C-118.86165351 250.95581717 -118.86187494 250.22638692 -118.86210307 249.47485272 C-118.86605123 237.65502472 -118.8835058 225.83525838 -118.9067916 214.0154542 C-118.9305039 201.88125463 -118.94296739 189.747086 -118.94413352 177.61286288 C-118.94505034 170.79952596 -118.95080446 163.98626936 -118.96895313 157.17295456 C-118.98596167 150.7650678 -118.98760763 144.35729286 -118.97881413 137.9493885 C-118.97804174 135.59595583 -118.98241285 133.24251508 -118.99227238 130.88910294 C-119.00493296 127.67913746 -118.99914684 124.4697174 -118.98869038 121.25975609 C-118.99674678 120.32599716 -119.00480319 119.39223824 -119.01310372 118.43018359 C-118.96281292 111.84011563 -117.70221884 107.67575294 -113.3086977 102.56976891 C-107.43743743 97.51775425 -102.69511663 96.83810396 -95.2461977 97.06976891 C-94.41475239 97.08330406 -93.58330708 97.09683922 -92.72666645 97.11078453 C-90.69122704 97.14587831 -88.65612479 97.19967663 -86.6211977 97.25726891 C-86.66760395 96.26726891 -86.7140102 95.27726891 -86.7618227 94.25726891 C-87.23502361 79.99260942 -87.23502361 79.99260942 -82.6211977 74.25726891 C-78.26609405 69.62773406 -73.98887309 67.37321775 -67.63291645 67.06195641 C-66.19137978 67.07512112 -64.74990551 67.0987824 -63.3086977 67.13226891 C-62.56813129 67.14129234 -61.82756489 67.15031578 -61.06455708 67.15961266 C-59.24996303 67.18302677 -57.43553699 67.21889275 -55.6211977 67.25726891 C-55.66760395 66.05070641 -55.7140102 64.84414391 -55.7618227 63.60101891 C-55.79937057 61.98646054 -55.83576747 60.37187513 -55.8711977 58.75726891 C-55.90471333 57.96578453 -55.93822895 57.17430016 -55.9727602 56.35883141 C-56.07861891 49.90145037 -54.68067044 44.56786477 -50.2083559 39.72846031 C-44.04243958 34.28428696 -38.65400622 33.98016002 -30.8086977 34.13226891 C-29.92504536 34.14129234 -29.04139301 34.15031578 -28.13096333 34.15961266 C-25.96092411 34.18307254 -23.79102523 34.21894025 -21.6211977 34.25726891 C-21.66760395 32.97851891 -21.7140102 31.69976891 -21.7618227 30.38226891 C-21.79936797 28.67395912 -21.83576515 26.96562382 -21.8711977 25.25726891 C-21.90471333 24.41808922 -21.93822895 23.57890953 -21.9727602 22.71430016 C-22.07529301 16.1009338 -20.80173126 10.69446554 -16.2083559 5.73041344 C-11.11492383 1.22666133 -6.67912307 0.00806786 0 0 Z " fill="#131313" transform="translate(118.62119770050049,70.74273109436035)"/>
<path d="M0 0 C86.13 0 172.26 0 261 0 C262.98 5.445 262.98 5.445 265 11 C270.49734531 20.58839299 277.13716271 27.55773401 287.73828125 31.2109375 C290 32 290 32 294 34 C294 69.31 294 104.62 294 141 C290.04 142.65 286.08 144.3 282 146 C278.63632057 147.93501701 278.63632057 147.93501701 276 150 C275.175 150.556875 274.35 151.11375 273.5 151.6875 C266.70917518 157.96901296 264.18632652 165.23760207 261 174 C174.87 174 88.74 174 0 174 C-1.32 170.37 -2.64 166.74 -4 163 C-9.37614929 153.39973341 -17.52440507 145.83888261 -28 142 C-29.65 141.67 -31.3 141.34 -33 141 C-33 105.69 -33 70.38 -33 34 C-29.04 32.35 -25.08 30.7 -21 29 C-8.48138034 22.08181545 -4.51438254 13.54314763 0 0 Z " fill="#D4EEC4" transform="translate(77,215)"/>
<path d="M0 0 C0.96493574 -0.00436032 0.96493574 -0.00436032 1.94936514 -0.00880873 C4.12573982 -0.01616351 6.30183737 -0.00914019 8.47821045 -0.002285 C10.04593679 -0.00458728 11.61366205 -0.00776223 13.18138504 -0.01173949 C17.50563225 -0.02012822 21.82979176 -0.01594383 26.15403938 -0.00976706 C30.81121557 -0.00526015 35.46837618 -0.01221753 40.12554932 -0.0177269 C49.25536919 -0.02664146 58.38515627 -0.02468973 67.51497746 -0.01890162 C74.93196444 -0.01439322 82.34894221 -0.01376865 89.76593018 -0.01594925 C90.81971902 -0.01625572 91.87350787 -0.01656218 92.95922971 -0.01687793 C95.09967518 -0.01751736 97.24012065 -0.01816578 99.38056612 -0.01882312 C119.47309867 -0.02453245 139.565613 -0.01795907 159.65814257 -0.00722238 C176.91555714 0.00171367 194.1729448 0.0001618 211.43035889 -0.00905991 C231.44875405 -0.0197519 251.46713323 -0.02398308 271.48553085 -0.01783538 C273.61830393 -0.01719825 275.75107701 -0.01656951 277.8838501 -0.01594925 C278.9333406 -0.0156407 279.9828311 -0.01533215 281.06412435 -0.01501425 C288.47612341 -0.01328409 295.88811237 -0.0162093 303.30010986 -0.02090836 C312.32723099 -0.02650531 321.35431732 -0.02502582 330.38143444 -0.01434687 C334.99122217 -0.00907412 339.60095178 -0.00706053 344.21073914 -0.01364517 C348.42483461 -0.01957377 352.63881771 -0.01638108 356.85290289 -0.00569007 C358.38315007 -0.00344283 359.91340662 -0.00462166 361.44364786 -0.00944164 C363.51249656 -0.01546182 365.58095262 -0.00934856 367.64978027 0 C369.3785396 0.00048706 369.3785396 0.00048706 371.14222336 0.00098395 C373.82489014 0.25168228 373.82489014 0.25168228 375.82489014 2.25168228 C376.02308454 5.35578574 376.09399937 8.37081785 376.07885742 11.47616959 C376.0819774 12.44426921 376.08509738 13.41236884 376.08831191 14.40980482 C376.09632937 17.67421539 376.0899537 20.938442 376.0836792 24.20285416 C376.0863874 26.53485092 376.08994736 28.86684682 376.09429932 31.19884109 C376.10344595 37.54784922 376.09986971 43.89679262 376.09354115 50.24580193 C376.08900397 56.20533785 376.09245975 62.16486563 376.09539554 68.12440175 C376.10110353 80.64721592 376.09453358 93.17000086 376.0837948 105.69281024 C376.07485886 116.44633562 376.07641077 127.19981783 376.08563232 137.95334244 C376.09632668 150.43024739 376.10055417 162.90712669 376.0944078 175.38403559 C376.09128273 181.99267394 376.09089342 188.60128252 376.09748077 195.20991898 C376.10323948 201.42161343 376.09928448 207.63322601 376.08769226 213.84491158 C376.08503775 216.13067806 376.08582414 218.41645139 376.09021759 220.70221519 C376.09564338 223.81063623 376.08887515 226.91879112 376.07885742 230.02719498 C376.08331887 230.9421598 376.08778031 231.85712462 376.09237695 232.79981565 C376.05319012 239.0233823 376.05319012 239.0233823 373.82489014 241.25168228 C371.13350999 241.50007927 371.13350999 241.50007927 367.62857628 241.49777794 C366.98299822 241.50008563 366.33742015 241.50239332 365.67227912 241.50477093 C363.48813401 241.51010534 361.3042781 241.50105866 359.12014771 241.49219131 C357.54687195 241.49306268 355.97359647 241.49481239 354.40032256 241.49736965 C350.06080483 241.50186076 345.72138504 241.49381541 341.38187981 241.48381352 C336.70838795 241.4752066 332.03490197 241.47809722 327.36140442 241.47961807 C319.25885069 241.48066868 311.15632907 241.47437379 303.05378342 241.4631424 C291.33875032 241.44691406 279.62373281 241.44168213 267.90868969 241.43916641 C248.90353415 241.43478511 229.89839574 241.42146423 210.89324951 241.40256119 C192.42743007 241.38421363 173.96161528 241.37005163 155.49578857 241.36154556 C153.78950877 241.36075739 153.78950877 241.36075739 152.04875867 241.3599533 C146.34236882 241.35734329 140.63597894 241.35481586 134.92958903 241.35232949 C87.56134422 241.33158345 40.19311801 241.2963461 -7.17510986 241.25168228 C-8.89938581 237.80313039 -8.31524663 233.82270336 -8.30882263 230.02719498 C-8.31108819 229.05909535 -8.31335374 228.09099572 -8.31568795 227.09355974 C-8.32204995 223.82919805 -8.32119719 220.56487764 -8.32037354 217.30051041 C-8.32336362 214.96851421 -8.3267658 212.63651851 -8.33055115 210.30452347 C-8.33940982 203.9555339 -8.34173002 197.60655779 -8.34236693 191.25756264 C-8.34331435 185.96638549 -8.34699063 180.67521152 -8.35053903 175.38403559 C-8.35836642 163.62053236 -8.36120701 151.857035 -8.36053368 140.0935294 C-8.36049372 139.3872677 -8.36045376 138.68100601 -8.3604126 137.95334244 C-8.36037172 137.24622236 -8.36033084 136.53910228 -8.36028872 135.81055433 C-8.35988203 124.34363384 -8.36945671 112.87674615 -8.38355096 101.40983516 C-8.39789615 89.64633075 -8.4048222 77.88284236 -8.40395719 66.11932898 C-8.40370151 59.51068626 -8.40659125 52.90208066 -8.41713524 46.29344559 C-8.42677489 40.08175791 -8.42692399 33.87014315 -8.41961861 27.65845299 C-8.41856765 25.37268404 -8.42096563 23.08691065 -8.42697906 20.80114937 C-8.43463007 17.69273536 -8.43010031 14.58457758 -8.42234802 11.47616959 C-8.42749159 10.56120476 -8.43263515 9.64623994 -8.43793458 8.70354891 C-8.39657739 1.2544862 -7.35651519 0.00207261 0 0 Z M52.82489014 31.25168228 C51.17489014 35.87168228 49.52489014 40.49168228 47.82489014 45.25168228 C40.79984047 56.35126076 31.88646441 60.42705257 19.82489014 65.25168228 C19.82489014 100.56168228 19.82489014 135.87168228 19.82489014 172.25168228 C22.79489014 173.24168228 25.76489014 174.23168228 28.82489014 175.25168228 C38.92713268 180.38071288 46.72869617 187.55498618 50.82489014 198.25168228 C51.81489014 201.71668228 51.81489014 201.71668228 52.82489014 205.25168228 C138.95489014 205.25168228 225.08489014 205.25168228 313.82489014 205.25168228 C315.47489014 200.96168228 317.12489014 196.67168228 318.82489014 192.25168228 C326.22491421 180.9339984 334.09147438 176.88201528 346.82489014 172.25168228 C346.82489014 136.94168228 346.82489014 101.63168228 346.82489014 65.25168228 C342.86489014 63.60168228 338.90489014 61.95168228 334.82489014 60.25168228 C323.47560511 52.84997465 317.51215272 44.15710133 313.82489014 31.25168228 C227.69489014 31.25168228 141.56489014 31.25168228 52.82489014 31.25168228 Z " fill="#9BBC85" transform="translate(24.17510986328125,183.74831771850586)"/>
<path d="M0 0 C1.72211047 -0.0083016 1.72211047 -0.0083016 3.47901106 -0.0167709 C6.66630959 -0.02804089 9.85299012 -0.02133181 13.04025817 -0.00703418 C16.47726754 0.00405929 19.91420683 -0.00786157 23.35121155 -0.01687622 C30.08449455 -0.03082186 36.81759023 -0.02324283 43.55086434 -0.00820064 C51.38904586 0.00864456 59.22718053 0.00545109 67.06537455 0.00170528 C81.04903272 -0.00417572 95.03260089 0.01000766 109.01623535 0.03465271 C122.59081394 0.0585742 136.16527228 0.06565729 149.73986816 0.05516052 C164.51530379 0.04375569 179.29068377 0.04181586 194.06611872 0.05625862 C195.64113012 0.05778449 197.21614154 0.05930484 198.79115295 0.06081963 C199.95361123 0.06195635 199.95361123 0.06195635 201.13955352 0.06311603 C206.60549016 0.06786223 212.07140199 0.06600505 217.53733826 0.06175423 C224.19687558 0.05683162 230.85629913 0.0627937 237.51581037 0.08264852 C240.91478564 0.09253203 244.31358753 0.09761437 247.7125721 0.08975601 C251.39393662 0.08383044 255.07478555 0.09625657 258.75610352 0.11352539 C260.37456846 0.10451032 260.37456846 0.10451032 262.02572966 0.09531313 C263.01006121 0.10375307 263.99439277 0.11219301 265.00855255 0.12088871 C265.85847668 0.12191784 266.70840081 0.12294697 267.58408022 0.12400728 C270.44621783 0.59462909 271.79821285 1.49912744 273.87805176 3.50120544 C274.65996861 6.10469897 275.24807372 8.53514878 275.75305176 11.18870544 C277.62393496 19.61050311 280.36331584 25.20656263 287.50305176 30.37620544 C291.79603745 32.87424336 296.15174296 33.34067627 301.04602051 33.75120544 C305.10523734 34.82619804 306.37106803 36.09133514 308.87805176 39.50120544 C309.63270757 43.5491248 309.55043972 47.55607658 309.50915527 51.66355896 C309.51988823 53.51307159 309.51988823 53.51307159 309.53083801 55.39994812 C309.54483651 58.77433362 309.53643181 62.1471836 309.51674771 65.52144361 C309.50034289 69.05498479 309.50917647 72.58847655 309.51426697 76.12203979 C309.51878533 82.054465 309.50293299 87.98657463 309.47497559 93.91893005 C309.44290973 100.77590828 309.44294574 107.63231787 309.46019036 114.48933655 C309.47605666 121.08938825 309.46932229 127.68923163 309.45225334 134.28927422 C309.44538388 137.09664905 309.44641405 139.90385685 309.45379829 142.71122932 C309.46288534 146.63045544 309.43892281 150.54909756 309.41149902 154.46824646 C309.42128784 156.21620766 309.42128784 156.21620766 309.43127441 157.9994812 C309.41218773 159.59978683 309.41218773 159.59978683 309.39271545 161.23242188 C309.38990853 162.15878228 309.38710161 163.08514269 309.38420963 164.03957462 C308.71808451 167.27918468 307.43620007 168.46639463 304.87805176 170.50120544 C301.70617676 171.33714294 301.70617676 171.33714294 298.12805176 171.87620544 C290.21629898 173.38947209 286.00399231 176.20629513 280.56555176 181.93870544 C277.04259444 187.28838137 275.54818231 191.95915138 275.47961426 198.29026794 C274.49093103 201.92399981 272.87555836 203.2248149 269.87805176 205.50120544 C266.1518742 206.25486464 262.47142848 206.17558463 258.68054199 206.13612366 C257.53640304 206.14392361 256.39226408 206.15172356 255.21345425 206.15975988 C251.37085934 206.17973983 247.52924817 206.16389048 243.68664551 206.1481781 C240.93541412 206.15220042 238.18422481 206.16367184 235.43301392 206.17472839 C228.73092439 206.19696961 222.02911473 206.19215583 215.32701421 206.17766519 C209.88045151 206.16637636 204.43396728 206.16484049 198.98739624 206.17028427 C198.21241616 206.17105044 197.43743607 206.1718166 196.63897175 206.17260598 C195.06464805 206.1742046 193.49032437 206.17582567 191.91600072 206.17746894 C177.15115952 206.19172902 162.38647349 206.1753297 147.62165773 206.14846711 C134.95085979 206.12612805 122.28029088 206.13000811 109.60949707 206.15306091 C94.89774968 206.1798144 80.18613832 206.1903557 65.47437 206.17499959 C63.90581578 206.17340684 62.33726154 206.17183498 60.76870728 206.17028427 C59.9969349 206.16951289 59.22516252 206.16874152 58.43000311 206.16794676 C52.98954692 206.16362839 47.54917696 206.17091924 42.10873413 206.18268204 C35.47919647 206.19670061 28.84995483 206.19292094 22.22045112 206.16627832 C18.83732094 206.15313062 15.45509356 206.15069023 12.07190323 206.16452408 C8.40595947 206.17813474 4.74141545 206.16111493 1.07556152 206.13612366 C-0.53167455 206.15285407 -0.53167455 206.15285407 -2.17138004 206.16992247 C-9.35077992 206.07461789 -9.35077992 206.07461789 -13.26564026 203.16367149 C-15.49666878 199.96375114 -15.97488498 197.60249181 -16.49694824 193.75120544 C-18.00442713 185.79738038 -20.67836235 180.5746226 -27.41491699 175.91526794 C-32.69294558 173.01193266 -37.69977984 171.80881299 -43.67663574 171.25120544 C-47.33029028 170.13059575 -48.17165269 168.81834433 -50.12194824 165.50120544 C-50.72192569 161.54729478 -50.65770606 157.62265634 -50.62365723 153.63011169 C-50.62906021 152.42797028 -50.6344632 151.22582886 -50.64002991 149.98725891 C-50.65038283 146.6978353 -50.64282772 143.40906682 -50.62631869 140.11968613 C-50.61244496 136.67336896 -50.61893091 133.22708149 -50.62245178 129.78074646 C-50.62515209 123.99379555 -50.61169399 118.20705226 -50.58850098 112.42015076 C-50.5618922 105.73481164 -50.56014472 99.04981961 -50.57188934 92.36444569 C-50.58267802 85.92674136 -50.57647155 79.48916229 -50.56233406 73.0514679 C-50.55658366 70.31472301 -50.55664945 67.57807006 -50.56139946 64.84132385 C-50.5643064 61.01810202 -50.54782806 57.19544918 -50.52600098 53.37229919 C-50.53050262 52.23863922 -50.53500427 51.10497925 -50.53964233 49.93696594 C-50.5297377 48.89396332 -50.51983307 47.85096069 -50.5096283 46.77635193 C-50.5071984 45.87303635 -50.50476851 44.96972076 -50.50226498 44.03903198 C-50.03757486 40.93818787 -48.92621579 39.04377069 -47.12194824 36.50120544 C-44.47238784 34.76714355 -41.96446028 34.1712885 -38.87194824 33.62620544 C-30.01538852 31.74709985 -24.22621622 27.84718062 -18.93444824 20.43870544 C-16.64738161 16.3019395 -16.28655009 11.91651595 -15.80944824 7.27073669 C-13.74943136 -1.02785404 -7.15475856 -0.06369137 0 0 Z M-1.12194824 15.50120544 C-2.77194824 20.12120544 -4.42194824 24.74120544 -6.12194824 29.50120544 C-13.14699791 40.60078392 -22.06037397 44.67657573 -34.12194824 49.50120544 C-34.12194824 84.81120544 -34.12194824 120.12120544 -34.12194824 156.50120544 C-31.15194824 157.49120544 -28.18194824 158.48120544 -25.12194824 159.50120544 C-15.0197057 164.63023604 -7.21814221 171.80450934 -3.12194824 182.50120544 C-2.13194824 185.96620544 -2.13194824 185.96620544 -1.12194824 189.50120544 C85.00805176 189.50120544 171.13805176 189.50120544 259.87805176 189.50120544 C261.52805176 185.21120544 263.17805176 180.92120544 264.87805176 176.50120544 C272.27807583 165.18352157 280.14463601 161.13153845 292.87805176 156.50120544 C292.87805176 121.19120544 292.87805176 85.88120544 292.87805176 49.50120544 C288.91805176 47.85120544 284.95805176 46.20120544 280.87805176 44.50120544 C269.52876673 37.09949782 263.56531434 28.4066245 259.87805176 15.50120544 C173.74805176 15.50120544 87.61805176 15.50120544 -1.12194824 15.50120544 Z " fill="#141414" transform="translate(78.1219482421875,199.49879455566406)"/>
<path d="M0 0 C0.96493574 -0.00480972 0.96493574 -0.00480972 1.94936514 -0.0097166 C4.12573544 -0.01808159 6.30183517 -0.01206991 8.47821045 -0.00622082 C10.04593717 -0.00923855 11.61366242 -0.01312611 13.18138504 -0.01781338 C17.5056283 -0.02815091 21.82978919 -0.02589703 26.15403938 -0.02163279 C30.8112186 -0.01917597 35.46837745 -0.02816664 40.12554932 -0.03567028 C49.25536601 -0.04844816 58.38515333 -0.05020716 67.51497746 -0.04787002 C74.93196504 -0.04609026 82.34894367 -0.04782912 89.76593018 -0.05209446 C91.34661344 -0.05298724 91.34661344 -0.05298724 92.95922971 -0.05389806 C95.09967518 -0.05510975 97.24012065 -0.05632389 99.38056612 -0.05754044 C119.47309687 -0.06842773 139.56561086 -0.06624777 159.65814257 -0.06015559 C178.0604197 -0.05498446 196.46264393 -0.06624495 214.8649106 -0.08525381 C233.73845571 -0.10460079 252.61197575 -0.1128938 271.48553085 -0.10913056 C282.09040822 -0.10721385 292.69524055 -0.10975167 303.30010986 -0.1238451 C312.32724201 -0.13571989 321.35430137 -0.13720783 330.38143444 -0.12505493 C334.99125001 -0.11913887 339.60093221 -0.11814149 344.21073914 -0.13005733 C348.42487978 -0.14082428 352.63877422 -0.13792378 356.85290289 -0.12379565 C358.38315105 -0.12112314 359.91341795 -0.12359419 361.44364786 -0.13153151 C363.51266248 -0.14152451 365.58080229 -0.13331479 367.64978027 -0.12025452 C368.80228649 -0.12030953 369.95479271 -0.12036455 371.14222336 -0.12042123 C372.0275034 0.00329472 372.91278343 0.12701067 373.82489014 0.25447559 C375.85782319 3.30387517 376.07501779 3.88193295 376.07657242 7.30373192 C376.08178791 8.13055302 376.08700341 8.95737413 376.09237695 9.80925041 C376.0879155 10.71741145 376.08345406 11.62557248 376.07885742 12.56125355 C376.0819774 13.52612405 376.08509738 14.49099455 376.08831191 15.48510355 C376.09631754 18.73258902 376.08995827 21.97988897 376.0836792 25.22737598 C376.0863879 27.54966816 376.08994815 29.87195947 376.09429932 32.19424915 C376.10343942 38.51220744 376.09987251 44.83010062 376.09354115 51.14806008 C376.08900161 57.07985402 376.09246051 63.01163979 376.09539554 68.94343393 C376.10110153 81.40664096 376.09453649 93.86981859 376.0837948 106.3330208 C376.07485695 117.03479975 376.07641273 127.73653532 376.08563232 138.43831348 C376.09632661 150.85772699 376.10055439 163.27711472 376.0944078 175.69653219 C376.09128298 182.27385655 376.0908928 188.85115101 376.09748077 195.42847347 C376.10323932 201.60981262 376.09928479 207.79106949 376.08769226 213.97239971 C376.08503778 216.24687914 376.0858241 218.52136544 376.09021759 220.79584217 C376.09564342 223.88888345 376.08887514 226.98165727 376.07885742 230.07468128 C376.08331887 230.98507304 376.08778031 231.89546479 376.09237695 232.83344418 C376.0531903 239.02617543 376.0531903 239.02617543 373.82489014 241.25447559 C371.08003421 241.39955255 368.44008471 241.44099982 365.69989014 241.37947559 C364.94578857 241.37045216 364.19168701 241.36142872 363.41473389 241.35213184 C361.55131759 241.3285443 359.68806421 241.29267278 357.82489014 241.25447559 C357.82342358 240.19502735 357.82195702 239.13557911 357.82044601 238.04402637 C357.78384762 212.26281414 357.72439347 186.48173178 357.6409874 160.70062733 C357.60118167 148.23306024 357.56879692 135.76555641 357.55389404 123.29793262 C357.54088554 112.43088436 357.51394119 101.5639752 357.47027707 90.69700527 C357.44764444 84.94325313 357.43198055 79.18967268 357.43300629 73.43587208 C357.43375182 68.01856732 357.41584352 62.60164235 357.38372231 57.18443584 C357.37521411 55.19791807 357.37347961 53.21135775 357.37908745 51.22482967 C357.38573494 48.50778817 357.36778894 45.79195239 357.34387207 43.07503223 C357.35163249 42.29290867 357.35939291 41.5107851 357.36738849 40.70496082 C357.25790037 33.65615894 354.94237999 28.5196973 350.13739014 23.37947559 C342.16276248 18.26367672 332.75449894 18.96141922 323.60710144 18.97600269 C322.17214983 18.97099356 320.73720104 18.96511596 319.30225617 18.95844996 C315.37763116 18.94271069 311.45307785 18.93922264 307.5284251 18.93780136 C303.2892593 18.93409667 299.05013235 18.91893588 294.81098938 18.90518665 C287.47250719 18.88294354 280.13403889 18.86791254 272.79553032 18.85781956 C262.18536361 18.84321643 251.57524526 18.81767501 240.96510697 18.78948827 C223.74967967 18.74404997 206.5342454 18.70742292 189.31878662 18.67635059 C172.59839657 18.64615292 155.87802356 18.61179705 139.15765381 18.57185841 C137.61094987 18.56816608 137.61094987 18.56816608 136.03299939 18.56439917 C130.85994628 18.55202433 125.68689337 18.53956784 120.51384056 18.52707076 C77.61754753 18.42354732 34.72123332 18.33432943 -8.17510986 18.25447559 C-8.22893093 15.62920371 -8.26869299 13.00502847 -8.30010986 10.37947559 C-8.31686768 9.63310841 -8.33362549 8.88674122 -8.35089111 8.11775684 C-8.36850576 6.16253098 -8.27831175 4.20705538 -8.17510986 2.25447559 C-5.41974144 -0.50089283 -3.86108112 0.00290384 0 0 Z " fill="#9BBC85" transform="translate(121.17510986328125,86.7455244064331)"/>
<path d="M0 0 C0.96493574 -0.00436032 0.96493574 -0.00436032 1.94936514 -0.00880873 C4.12573982 -0.01616351 6.30183737 -0.00914019 8.47821045 -0.002285 C10.04593679 -0.00458728 11.61366205 -0.00776223 13.18138504 -0.01173949 C17.50563225 -0.02012822 21.82979176 -0.01594383 26.15403938 -0.00976706 C30.81121557 -0.00526015 35.46837618 -0.01221753 40.12554932 -0.0177269 C49.25536919 -0.02664146 58.38515627 -0.02468973 67.51497746 -0.01890162 C74.93196444 -0.01439322 82.34894221 -0.01376865 89.76593018 -0.01594925 C90.81971902 -0.01625572 91.87350787 -0.01656218 92.95922971 -0.01687793 C95.09967518 -0.01751736 97.24012065 -0.01816578 99.38056612 -0.01882312 C119.47309867 -0.02453245 139.565613 -0.01795907 159.65814257 -0.00722238 C176.91555714 0.00171367 194.1729448 0.0001618 211.43035889 -0.00905991 C231.44875405 -0.0197519 251.46713323 -0.02398308 271.48553085 -0.01783538 C273.61830393 -0.01719825 275.75107701 -0.01656951 277.8838501 -0.01594925 C278.9333406 -0.0156407 279.9828311 -0.01533215 281.06412435 -0.01501425 C288.47612341 -0.01328409 295.88811237 -0.0162093 303.30010986 -0.02090836 C312.32723099 -0.02650531 321.35431732 -0.02502582 330.38143444 -0.01434687 C334.99122217 -0.00907412 339.60095178 -0.00706053 344.21073914 -0.01364517 C348.42483461 -0.01957377 352.63881771 -0.01638108 356.85290289 -0.00569007 C358.38315007 -0.00344283 359.91340662 -0.00462166 361.44364786 -0.00944164 C363.51249656 -0.01546182 365.58095262 -0.00934856 367.64978027 0 C369.3785396 0.00048706 369.3785396 0.00048706 371.14222336 0.00098395 C373.82489014 0.25168228 373.82489014 0.25168228 375.82489014 2.25168228 C376.02527525 5.35344729 376.09841396 8.36627058 376.08558655 11.46944046 C376.08941209 12.43683452 376.09323764 13.40422858 376.09717911 14.40093762 C376.10754997 17.66300769 376.10350924 20.92490309 376.09954834 24.18698502 C376.10389255 26.51735981 376.10907472 28.84773318 376.11503601 31.1781044 C376.12846848 37.52304237 376.12899997 43.86792093 376.12647271 50.21287036 C376.12527111 56.16954833 376.13147316 62.12621618 376.13690617 68.08289111 C376.14779128 80.60096378 376.14561465 93.11900953 376.13952132 105.63708372 C376.1343515 117.09688195 376.14560756 128.55659519 376.16461954 140.01637661 C376.18397699 151.7742415 376.19225762 163.53206615 376.18849629 175.28994709 C376.18667878 181.89472452 376.18936608 188.49942411 376.20321083 195.10418892 C376.21573858 201.31345174 376.21389313 207.52254385 376.20079994 213.73180389 C376.19842356 216.01553974 376.20120652 218.29928742 376.20942307 220.58300972 C376.21980266 223.69118792 376.21186082 226.79878393 376.19911194 229.90694046 C376.20648622 230.81899244 376.21386051 231.73104442 376.22145826 232.67073435 C376.21425171 233.50103885 376.20704517 234.33134334 376.19962025 235.18680859 C376.19967526 235.90453503 376.19973028 236.62226147 376.19978696 237.36173719 C375.70683908 239.84680608 374.82773474 240.73782875 372.82489014 242.25168228 C369.68817139 242.54465103 369.68817139 242.54465103 366.13739014 242.43918228 C364.36815186 242.39857681 364.36815186 242.39857681 362.56317139 242.35715103 C361.65953857 242.32234634 360.75590576 242.28754166 359.82489014 242.25168228 C359.82434537 241.17161911 359.8238006 240.09155594 359.82323933 238.97876358 C359.80884306 212.69683138 359.76582284 186.41506478 359.69279957 160.1332283 C359.65814848 147.42350725 359.63279387 134.71389466 359.6293335 122.00412369 C359.62629379 110.92610779 359.60580219 99.84828506 359.56436557 88.77034378 C359.54303476 82.9047715 359.53043555 77.03947387 359.53873634 71.17386246 C359.54627571 65.65143823 359.53045757 60.12957056 359.49682999 54.60724831 C359.48859546 52.58202822 359.48884822 50.55675281 359.49829292 48.53153801 C359.5099298 45.76173662 359.49077405 42.99375471 359.46412659 40.22409439 C359.47479985 39.42640703 359.4854731 38.62871967 359.4964698 37.80685997 C359.39036116 31.8777167 357.53472447 27.86991061 353.82489014 23.25168228 C351.81954806 21.58276251 351.81954806 21.58276251 349.69989014 20.81418228 C349.03731201 20.52672134 348.37473389 20.23926041 347.69207764 19.94308853 C343.90050567 18.5390964 341.01178223 18.12309342 336.97404957 18.11301708 C335.74540458 18.10754264 334.51675958 18.10206819 333.25088292 18.09642786 C331.88019175 18.09535159 330.5095005 18.09436691 329.1388092 18.0934639 C327.68841372 18.08889961 326.23801954 18.08389978 324.78762692 18.07850033 C320.79245544 18.06489463 316.79729249 18.05749384 312.80210388 18.05107367 C308.49740272 18.04308039 304.19271937 18.02937893 299.88803101 18.01636124 C292.42667001 17.99458325 284.96530723 17.9764436 277.50393105 17.9607563 C266.71595636 17.93806971 255.92800138 17.90992521 245.1400434 17.88043702 C227.63843525 17.83274626 210.13681905 17.7894861 192.63519287 17.74899673 C175.63128025 17.70964936 158.62737478 17.66822496 141.62347412 17.62399673 C140.05200321 17.61991033 140.05200321 17.61991033 138.4487854 17.61574136 C133.19318821 17.60206201 127.93759112 17.58834171 122.68199408 17.57460105 C79.06297435 17.46061295 35.44393914 17.35380876 -8.17510986 17.25168228 C-8.22894835 14.79305827 -8.26870024 12.33560678 -8.30010986 9.87668228 C-8.31686768 9.17801041 -8.33362549 8.47933853 -8.35089111 7.75949478 C-8.36855253 5.92270742 -8.27814247 4.08566266 -8.17510986 2.25168228 C-5.41943146 -0.50399612 -3.86142223 0.00108791 0 0 Z " fill="#9BBB85" transform="translate(87.17510986328125,120.74831771850586)"/>
<path d="M0 0 C0.64130253 -0.00290688 1.28260505 -0.00581376 1.94334099 -0.00880873 C4.11296324 -0.01616343 6.2823075 -0.00914022 8.45192814 -0.002285 C10.01481699 -0.00458729 11.57770476 -0.00776224 13.14059025 -0.01173949 C17.45150536 -0.02012821 21.7623325 -0.01594383 26.07324803 -0.00976706 C30.71612829 -0.00526011 35.35899295 -0.01221758 40.00187016 -0.0177269 C49.10395159 -0.02664163 58.20600012 -0.0246896 67.30808287 -0.01890162 C74.70313145 -0.01439301 82.09817077 -0.01376874 89.49322033 -0.01594925 C90.54394509 -0.01625572 91.59466985 -0.01656218 92.67723476 -0.01687793 C94.8114775 -0.01751736 96.94572024 -0.01816578 99.07996298 -0.01882312 C119.1148218 -0.02453257 139.14966234 -0.01795903 159.18451817 -0.00722238 C176.38988001 0.00171238 193.59521486 0.00016289 210.80057621 -0.00905991 C230.76001733 -0.01975393 250.71944241 -0.02398182 270.678886 -0.01783538 C272.80577918 -0.01719825 274.93267236 -0.01656951 277.05956554 -0.01594925 C278.62944406 -0.01548642 278.62944406 -0.01548642 280.2310373 -0.01501425 C287.62002424 -0.0132846 295.00900104 -0.01620823 302.39798641 -0.02090836 C311.39872857 -0.02650762 320.39943582 -0.02502097 329.40017395 -0.01434687 C333.99590877 -0.00907705 338.59158532 -0.00705559 343.18731976 -0.01364517 C347.38974829 -0.01957984 351.59206424 -0.01637085 355.79448248 -0.00569007 C357.31936391 -0.00344543 358.84425474 -0.00461596 360.36913019 -0.00944164 C362.43314446 -0.01547529 364.49676709 -0.00933447 366.5607605 0 C367.70984923 0.0003247 368.85893797 0.00064941 370.04284757 0.00098395 C372.84330082 0.25168228 372.84330082 0.25168228 375.84330082 2.25168228 C376.14396726 5.38879866 376.2472365 8.32926703 376.22425175 11.46944046 C376.22893172 12.43683452 376.23361169 13.40422858 376.23843348 14.40093762 C376.25046003 17.66309028 376.24089633 20.92482876 376.23148441 24.18698502 C376.23554674 26.51736065 376.2408867 28.84773437 376.24741459 31.1781044 C376.26113507 37.52307407 376.25576983 43.86789802 376.24627733 50.21287036 C376.23947102 56.1695499 376.2446555 62.12621112 376.24905892 68.08289111 C376.25762122 80.60098085 376.24776588 93.11900477 376.23165782 105.63708372 C376.21825698 116.38405646 376.22057914 127.130932 376.2344141 137.87790298 C376.25046049 150.34860065 376.25679388 162.81924055 376.24757731 175.28994709 C376.24289153 181.89471812 376.24230068 188.49942215 376.25218678 195.10418892 C376.26083087 201.31346196 376.2548813 207.52255082 376.23750401 213.73180389 C376.2335253 216.01553605 376.23469669 218.29928362 376.241292 220.58300972 C376.24944303 223.69119839 376.23926387 226.79879022 376.22425175 229.90694046 C376.23094391 230.81899244 376.23763608 231.73104442 376.24453104 232.67073435 C376.23670779 233.50103885 376.22888455 234.33134334 376.22082424 235.18680859 C376.22009366 236.26339825 376.22009366 236.26339825 376.21934831 237.36173719 C375.72380571 239.85224261 374.85794716 240.74109809 372.84330082 242.25168228 C369.48783207 242.54465103 369.48783207 242.54465103 365.65580082 242.43918228 C364.38349613 242.41211197 363.11119144 242.38504166 361.80033207 242.35715103 C360.82451176 242.32234634 359.84869144 242.28754166 358.84330082 242.25168228 C358.84183426 241.16131165 358.8403677 240.07094101 358.8388567 238.94752884 C358.80226018 212.41525072 358.7428085 185.88309882 358.65939808 159.35092545 C358.61959039 146.52015346 358.58720664 133.68944296 358.57230473 120.85861588 C358.55929724 109.67514337 358.53235548 98.49180606 358.48868775 87.30840969 C358.46605284 81.38698464 358.45039137 75.46572646 358.45141697 69.5442543 C358.45216236 63.96936504 358.43425948 58.39484495 358.40213299 52.82005119 C358.39362309 50.77548087 358.39189144 48.73086918 358.39749813 46.68628883 C358.404143 43.89043627 358.38620557 41.09575664 358.36228275 38.30002213 C358.37004317 37.49455287 358.37780359 36.68908361 358.38579917 35.8592062 C358.28308444 29.05894188 356.32577083 23.67049921 351.40580082 18.87668228 C346.80731993 15.96057245 343.17298955 15.00158557 337.73074722 14.98996925 C335.8765815 14.97877101 335.8765815 14.97877101 333.98495787 14.96734655 C332.61622067 14.96912327 331.24748369 14.97108416 329.87874699 14.97320938 C328.42249882 14.96820633 326.96625344 14.96233051 325.51001197 14.95565665 C321.50794052 14.9398437 317.50593925 14.93642526 313.50384033 14.93500805 C309.18825743 14.93131627 304.87271313 14.91616189 300.55715275 14.90239334 C293.08000117 14.88010973 285.6028633 14.86510307 278.12568569 14.85502625 C267.31492079 14.84044633 256.50420365 14.81491143 245.69346676 14.78669496 C228.15415 14.74121448 210.61482636 14.70460486 193.07547855 14.67355728 C176.0367293 14.64337689 158.99799686 14.60902896 141.95926762 14.56906509 C140.90915879 14.56660355 139.85904996 14.564142 138.77711966 14.56160586 C133.50907959 14.54923135 128.24103971 14.5367748 122.97299993 14.52427745 C79.26312367 14.42069084 35.55322652 14.33149379 -8.15669918 14.25168228 C-8.21059005 12.29364721 -8.24944135 10.33519319 -8.28169918 8.37668228 C-8.30490231 7.28613541 -8.32810543 6.19558853 -8.35201168 5.07199478 C-7.96534043 -0.51153804 -4.76379435 0.00134632 0 0 Z " fill="#9ABA84" transform="translate(56.15669918060303,153.74831771850586)"/>
<path d="M0 0 C2.916929 3.81444561 3.34379879 6.5714366 3.1875 11.3125 C3.14689453 12.91544922 3.14689453 12.91544922 3.10546875 14.55078125 C3.07066406 15.35902344 3.03585938 16.16726562 3 17 C4.093125 17.0825 5.18625 17.165 6.3125 17.25 C15.25660048 18.40560944 23.3966178 21.79381373 30 28 C32.178657 31.26798549 32.72208564 32.20905038 32 36 C29.375 38.875 29.375 38.875 26 41 C21.52208803 40.71443438 18.48700989 39.36472155 14.6875 37.0625 C6.21372543 32.28741352 -2.7719123 30.50774964 -12.421875 32.5 C-17.60476634 34.03051825 -21.34957283 35.98453012 -25 40 C-26.40814405 43.43808422 -26.40814405 43.43808422 -26 47 C-19.47916128 56.04503435 -6.27231876 58.34156518 3.86767578 61.49462891 C14.57682982 64.84074436 25.51571357 68.27357036 32 78 C34.81654901 83.50507306 34.1597721 89.09188562 33 95 C29.61916223 104.75756642 23.10100263 110.56080591 14 115 C10.70658438 116.19638363 7.4043115 117.17427338 4 118 C3.89042969 118.83144531 3.78085938 119.66289062 3.66796875 120.51953125 C3.50941406 121.60621094 3.35085937 122.69289063 3.1875 123.8125 C3.03667969 124.89144531 2.88585937 125.97039062 2.73046875 127.08203125 C1.97330842 130.10662356 1.54849442 131.26130754 -1 133 C-5.21989628 133.46887736 -7.70728469 133.69607748 -11.4375 131.6875 C-13.92001157 127.41758009 -13.8323395 122.86215463 -14 118 C-14.61746094 117.85304688 -15.23492187 117.70609375 -15.87109375 117.5546875 C-24.8534061 115.17581026 -31.7672947 110.94501447 -38 104 C-38.78375 103.21625 -39.5675 102.4325 -40.375 101.625 C-42 99 -42 99 -42 95.375 C-41 92 -41 92 -39.375 90 C-35.72145899 88.46166694 -33.80062115 88.85981366 -30 90 C-27.85558371 91.6167548 -25.93697726 93.37198077 -23.984375 95.21484375 C-17.13368975 101.37776335 -10.33977217 102.3432355 -1.40234375 102.29296875 C3.56618679 101.86513891 7.58483251 100.2279114 12 98 C12.72574219 97.67257812 13.45148438 97.34515625 14.19921875 97.0078125 C16.20731716 96.09114934 16.20731716 96.09114934 17.25 93.75 C18.07538212 90.72359888 18.05176202 88.12297513 18 85 C9.71194383 80.2264993 1.21691412 77.2871545 -7.90478516 74.53686523 C-20.34092586 70.77174406 -33.33441322 66.82136338 -40.16015625 54.89453125 C-43.03009777 48.42047713 -42.81088699 41.57024162 -40.5625 34.9375 C-36.45434391 25.71919852 -28.75195358 21.40992665 -19.69921875 17.8125 C-17 17 -17 17 -13 17 C-13.04640625 16.03578125 -13.0928125 15.0715625 -13.140625 14.078125 C-13.19476563 12.18320313 -13.19476563 12.18320313 -13.25 10.25 C-13.29640625 8.99703125 -13.3428125 7.7440625 -13.390625 6.453125 C-13 3 -13 3 -11.171875 0.609375 C-6.97905692 -2.49753336 -4.60673253 -2.11141908 0 0 Z " fill="#151515" transform="translate(213,238)"/>
<path d="M0 0 C4.35175651 2.42143192 6.91076621 4.75197104 9.6875 8.875 C10.285625 9.761875 10.88375 10.64875 11.5 11.5625 C13.71816765 17.75002028 13.80516175 24.22916502 11 30.25 C7.39646784 36.40237199 2.51359564 40.72668564 -4.3125 42.875 C-10.97028364 43.73715903 -16.49206817 43.25085046 -22.3125 39.875 C-27.21962658 35.65258875 -31.89854985 30.35680642 -32.515625 23.67578125 C-32.66525787 15.73276975 -31.58127276 9.99053007 -26.0625 4.0625 C-18.37434171 -2.96759047 -9.40472493 -4.33848918 0 0 Z " fill="#151515" transform="translate(113.3125,286.125)"/>
<path d="M0 0 C6.13816807 6.73864104 7.36630241 11.36312417 7.2734375 20.4453125 C6.76780192 27.01857508 4.39927642 30.95006088 -0.375 35.375 C-6.65842046 40.25326736 -13.23675553 40.87239874 -21 40 C-27.24750913 38.21040476 -31.42769313 34.32320728 -35 29 C-37.82951763 23.46957919 -37.7484943 17.06592253 -37 11 C-34.84615314 4.59615174 -31.05355139 0.00789768 -25 -3 C-16.66165361 -6.39331479 -7.2772361 -5.39677383 0 0 Z " fill="#141514" transform="translate(328,289)"/>
<path d="M0 0 C2.375 1.625 2.375 1.625 4 4 C4.61195145 7.6717087 4.48706506 9.28813568 2.375 12.375 C-0.71186432 14.48706506 -2.3282913 14.61195145 -6 14 C-8.375 12.375 -8.375 12.375 -10 10 C-10.61195145 6.3282913 -10.48706506 4.71186432 -8.375 1.625 C-5.28813568 -0.48706506 -3.6717087 -0.61195145 0 0 Z " fill="#A4C190" transform="translate(316,300)"/>
<path d="M0 0 C2.3125 1.625 2.3125 1.625 4 4 C4.61195145 7.6717087 4.48706506 9.28813568 2.375 12.375 C0 14 0 14 -3 14.5625 C-6 14 -6 14 -8.4375 11.875 C-10 9 -10 9 -10 5.875 C-8.2672175 0.89325032 -5.23199164 -0.91559854 0 0 Z " fill="#A5C391" transform="translate(106,300)"/>
</svg>
